<svg id="abe67c66-c6c3-4503-85d9-a9fd77b851e1" data-name="Warstwa 2" xmlns="http://www.w3.org/2000/svg" xmlns:xlink="http://www.w3.org/1999/xlink" viewBox="0 0 51 51"><defs><linearGradient id="b73d0a30-0b9c-4acc-9fa7-123f37a982d3" x1="7.47" y1="7.47" x2="43.53" y2="43.53" gradientUnits="userSpaceOnUse"><stop offset="0" stop-color="#fff"/><stop offset="0.33" stop-color="#fcfcfc"/><stop offset="0.6" stop-color="#f1f1f1"/><stop offset="0.86" stop-color="#e0e0e0"/><stop offset="1" stop-color="#d3d3d3"/></linearGradient></defs><circle cx="25.5" cy="25.5" r="25.5" fill="url(#b73d0a30-0b9c-4acc-9fa7-123f37a982d3)"/><path d="M9.4,41.28a11.29,11.29,0,0,1,1.13-1.21l.47-.42.09-.06a7.15,7.15,0,0,1,.61-.5l.32-.23c.36-.27.74-.53,1.12-.78l.74-.47.43-.27c.47-.3.94-.6,1.38-.9l.14-.1.13.11a11.74,11.74,0,0,0,2.77,1.74l.53.24L8.93,41.88Z" fill="#ffd54a"/><path d="M15.82,36.62a11.79,11.79,0,0,0,2.82,1.78l-2.09.7-7,2.32a10.3,10.3,0,0,1,1.1-1.18c.15-.15.31-.28.46-.42s0,0,0,0c.21-.18.43-.35.66-.52l.31-.23c.36-.27.74-.52,1.12-.78l.73-.47a5.08,5.08,0,0,0,.43-.27C14.9,37.23,15.37,36.93,15.82,36.62Z" fill="#ffd54a"/><path d="M9.36,41.35l3.21-9.61.24.53A11.65,11.65,0,0,0,16,36.45l.23.19-.25.17c-.45.3-.92.61-1.39.9l-.43.28-.73.46c-.37.25-.75.51-1.11.77l-.29.22c-.24.18-.45.34-.66.52l0,0-.07.05-.4.37a12.7,12.7,0,0,0-1.09,1.16Z" fill="#ffd55f"/><path d="M15.82,36.62c-.45.31-.92.61-1.39.9a5.08,5.08,0,0,1-.43.27l-.73.47c-.38.26-.76.51-1.12.78l-.31.23c-.23.17-.45.34-.66.52,0,0,0,0,0,0s-.31.27-.46.42a10.3,10.3,0,0,0-1.1,1.18l2.32-7,.7-2.09A11.89,11.89,0,0,0,15.82,36.62Z" fill="#ffd55f"/><path d="M36,15.44a11.37,11.37,0,0,0-3.71-2.63l-.53-.24,9.41-3.14.23.38-.58.55c-.46.45-.95,1-1.47,1.57-.17.18-.34.37-.49.56l-.5.56-.79.94-.18.22c-.35.41-.7.82-1.06,1.22l-.16.18Z" fill="#ffd55f"/><path d="M41.23,9.64l-.59.56c-.51.51-1,1-1.48,1.58-.17.18-.34.37-.5.56l-.49.57-.79.93-.19.23c-.34.41-.69.81-1,1.21a11.78,11.78,0,0,0-3.78-2.68l2.09-.7Z" fill="#ffd55f"/><path d="M38.2,18.73A11.49,11.49,0,0,0,36,15.44l-.15-.15.14-.16q.54-.6,1.05-1.2l.19-.24.79-.93.5-.57c.15-.18.32-.38.49-.56.53-.61,1-1.13,1.5-1.59.19-.2.38-.38.58-.57l0,0,.67-.21-3.35,10Z" fill="#ffd54a"/><path d="M41.42,9.58l-2.32,7-.7,2.09a11.88,11.88,0,0,0-2.26-3.36c.36-.4.71-.8,1-1.21l.19-.23.79-.93.49-.57c.16-.19.33-.38.5-.56.47-.54,1-1.07,1.48-1.58l.59-.56Z" fill="#ffd54a"/><path d="M41.35,41.64a7.29,7.29,0,0,1-1.61-.79l-.26-.18-.09-.07-.23-.18-.11-.08-.16-.14L38.61,40l-.48-.49-.26-.29L37.73,39l-.51-.63-.66-.88-.29-.42c-.21-.3-.42-.6-.64-.89L35.52,36l.14-.14a11.81,11.81,0,0,0,2.54-3.62l.23-.53,3.35,10Z" fill="#ffd55f"/><path d="M41.42,41.42a6.64,6.64,0,0,1-1.56-.76l-.34-.24-.33-.26c-.14-.13-.29-.25-.42-.38l0,0a5.81,5.81,0,0,1-.43-.43l-.4-.45c-.17-.2-.33-.41-.5-.62s-.44-.58-.65-.88l-.93-1.31a11.92,11.92,0,0,0,2.58-3.69l.7,2.09Z" fill="#ffd55f"/><path d="M31.74,38.43l.53-.24a11.56,11.56,0,0,0,3.39-2.3l.18-.18.16.21c.21.29.43.59.64.9l.29.41c.21.29.43.59.65.87l.49.62.14.15c.08.1.17.19.25.28l.42.43.31.28.15.13.1.08.22.17.09.07.23.16a6.67,6.67,0,0,0,1.52.74l-.15.43Z" fill="#ffd54a"/><path d="M41.42,41.42l-7-2.32-2.09-.7a11.9,11.9,0,0,0,3.46-2.35l.93,1.31c.21.3.43.59.65.88s.33.42.5.62l.4.45a5.81,5.81,0,0,0,.43.43l0,0c.13.13.28.25.42.38l.33.26.34.24A6.64,6.64,0,0,0,41.42,41.42Z" fill="#ffd54a"/><path d="M14.87,14.72l-1-.69A15.33,15.33,0,0,1,9.38,9.69l-.31-.52,10.19,3.4-.53.24A11.19,11.19,0,0,0,15.52,15l-.14.13Z" fill="#ffd54a"/><path d="M16.55,11.9l2.09.7a11.55,11.55,0,0,0-3.28,2.19L14,13.85A15.27,15.27,0,0,1,9.58,9.58Z" fill="#ffd54a"/><path d="M9.36,9.65l.41-.19a14.92,14.92,0,0,0,4.39,4.2l1,.69.59.41-.21.19a11.64,11.64,0,0,0-2.7,3.78l-.24.53Z" fill="#ffd55f"/><path d="M15.36,14.79a11.67,11.67,0,0,0-2.76,3.85l-.7-2.09-2.32-7A15.27,15.27,0,0,0,14,13.85Z" fill="#ffd55f"/><path d="M25,14l.09,0s0,.09,0,.14Z" fill="#ffd54a"/><polygon points="37.17 25.5 37.07 25.2 37.27 25.2 37.17 25.5" fill="#ffd54a"/><path d="M3.13,25.5l1.32-.66h.1c.92.19,1.89.37,2.87.53l.12,0,1.35.21,1.49.19c.71.1,1.38.16,2,.2a5.29,5.29,0,0,0,.67.05l.46,0,.39,0h.76v.27a14.78,14.78,0,0,0,1.14,4.9l.3.72Z" fill="#ffd54a"/><path d="M15.56,31.4,13,30.1l-9.2-4.6.72-.36c.93.18,1.9.36,2.88.52l1.48.23,1.5.19c.67.1,1.34.17,2,.21a5.21,5.21,0,0,0,.69.05l.44,0,.41,0h.49A15,15,0,0,0,15.56,31.4Z" fill="#ffd54a"/><path d="M14.4,26.68h-.51l-.41,0-.44,0-.6,0c-.76-.06-1.44-.13-2.12-.21l-1.51-.19L7.45,26l-.13,0c-1-.16-1.95-.34-2.88-.52l-.83-.16L16.13,19l-.31.71a14.94,14.94,0,0,0-1.17,5.79c0,.29,0,.59,0,.88l0,.3Z" fill="#ffd55f"/><path d="M14.37,25.5q0,.45,0,.9h-.49l-.41,0-.44,0-.69-.05c-.67-.05-1.34-.12-2-.21l-1.5-.19-1.48-.23c-1-.16-1.95-.34-2.88-.52L13,20.89l2.59-1.29A15.09,15.09,0,0,0,14.37,25.5Z" fill="#ffd55f"/><path d="M35.18,31.28a14.67,14.67,0,0,0,1.17-5.78c0-.15,0-.29,0-.43l0-.28.62-.05,2.11-.22.81-.08c.8-.07,1.52-.11,2.22-.11l.65,0a15.1,15.1,0,0,1,1.89.18c.44.08.87.18,1.31.29a13.14,13.14,0,0,1,1.34.44l.61.24L34.88,32Z" fill="#ffd55f"/><path d="M47.17,25.53,38,30.1l-2.59,1.29a15,15,0,0,0,1.2-5.89c0-.15,0-.3,0-.45L37,25l1.67-.18.43,0,.81-.08a24.43,24.43,0,0,1,2.84-.09,15,15,0,0,1,1.86.18c.42.08.85.17,1.28.29S46.73,25.36,47.17,25.53Z" fill="#ffd55f"/><path d="M47.07,25.8c-.44-.17-.86-.31-1.29-.43s-.81-.2-1.25-.28a16.21,16.21,0,0,0-1.82-.17h-.63c-.68,0-1.39,0-2.17.1l-.81.08-.44,0L37,25.31l-.37,0h-.28v-.28a14.8,14.8,0,0,0-1.16-5.33l-.3-.72,13,6.5-.62.31Z" fill="#ffd54a"/><path d="M47.23,25.5l-.06,0c-.44-.17-.88-.31-1.31-.43a10.21,10.21,0,0,0-1.28-.29,14.81,14.81,0,0,0-1.86-.18,24.43,24.43,0,0,0-2.84.09l-.81.08-.43,0L37,25l-.34,0a15.24,15.24,0,0,0-1.19-5.44L38,20.9Z" fill="#ffd54a"/><path d="M19,34.87l.72.31a14.77,14.77,0,0,0,5.69,1.17h.25l.12.94c.06.45.11.89.16,1.33s.11,1.13.15,1.7l0,.36c0,.23,0,.46,0,.7s0,.7,0,1,0,.77,0,1.16,0,.74-.09,1.11-.09.76-.17,1.15-.15.78-.25,1.18l-.19.75Z" fill="#ffd55f"/><path d="M25.89,42.43c0,.37,0,.76,0,1.14s-.05.74-.09,1.1-.09.75-.16,1.13-.15.77-.25,1.16L20.9,38l-1.3-2.59a15,15,0,0,0,5.81,1.19c.08.68.17,1.36.24,2s.11,1.12.15,1.69c0,.35.05.7.06,1S25.89,42.09,25.89,42.43Z" fill="#ffd55f"/><path d="M25.05,47l0-.11c.1-.39.18-.76.25-1.14s.12-.74.16-1.11.07-.73.09-1.09,0-.75,0-1.12,0-.69,0-1,0-.7-.06-1c0-.56-.09-1.11-.15-1.68l-.12-1c0-.33-.08-.66-.11-1l0-.31h.32a15,15,0,0,0,5.87-1.17l.71-.3-6.49,13Z" fill="#ffd54a"/><path d="M31.4,35.44,30.11,38,25.5,47.24,25.36,47c.1-.39.18-.77.25-1.16s.12-.76.16-1.13.07-.74.09-1.1,0-.77,0-1.14,0-.7,0-1,0-.7-.06-1c0-.57-.09-1.12-.15-1.69s-.16-1.34-.23-2h.08A15.09,15.09,0,0,0,31.4,35.44Z" fill="#ffd54a"/><path d="M25.25,3.63l.24.57a8.16,8.16,0,0,1,.37,1c.09.3.16.59.22.89l0,.19a8,8,0,0,1,.12,1,12,12,0,0,1,0,1.32,17.72,17.72,0,0,1-.22,2.23c-.05.36-.11.7-.17,1l-.1.53c-.07.34-.13.68-.18,1l-.09.52-.09.71h-.25a14.7,14.7,0,0,0-5.45,1.16l-.72.3Z" fill="#ffd55f"/><path d="M26,8.59a18.24,18.24,0,0,1-.23,2.2h0c-.05.34-.11.69-.17,1l-.09.52c-.07.34-.13.68-.18,1l-.09.51-.06.48a15,15,0,0,0-5.57,1.18L20.9,13l4.33-8.66a7.29,7.29,0,0,1,.35,1,8.52,8.52,0,0,1,.22.87l0,.18a7.48,7.48,0,0,1,.13,1A11.11,11.11,0,0,1,26,8.59Z" fill="#ffd55f"/><path d="M31.29,15.82a14.94,14.94,0,0,0-5.79-1.17h-.31l-.35,0,.1-.82.1-.53q.08-.52.18-1.05l.09-.51c.06-.34.12-.68.17-1a20.37,20.37,0,0,0,.22-2.18c0-.41,0-.84,0-1.26a7,7,0,0,0-.12-.92l0-.19c-.06-.27-.12-.54-.21-.83a7.26,7.26,0,0,0-.35-1l-.05-.12.59-1.18,6.5,13Z" fill="#ffd54a"/><path d="M31.4,15.56a15.09,15.09,0,0,0-5.9-1.19h-.33l.06-.48.09-.51c.05-.36.11-.7.18-1l.09-.52c.06-.34.12-.69.17-1h0A20.25,20.25,0,0,0,26,8.59c0-.42,0-.86,0-1.29a7.48,7.48,0,0,0-.13-1l0-.18a8.52,8.52,0,0,0-.22-.87,7.29,7.29,0,0,0-.35-1l.27-.55L30.11,13Z" fill="#ffd54a"/><path d="M38,25.5a12.52,12.52,0,1,1-5.11-10.07A12.5,12.5,0,0,1,38,25.5Z" fill="#262622"/><path d="M35.32,22.82A12.49,12.49,0,0,1,15.43,32.89,12.49,12.49,0,0,1,32.89,15.43,12.4,12.4,0,0,1,35.32,22.82Z" fill="#262628"/><path d="M20.44,21.39a.84.84,0,0,0-.83.84v3.33a.83.83,0,0,0,.83.83h3.33a.84.84,0,0,0,.84-.83" fill="none" stroke="#00beff" stroke-miterlimit="10" stroke-width="0.86"/><line x1="23.77" y1="21.39" x2="20.44" y2="21.39" fill="none" stroke="#66d8ff" stroke-miterlimit="10" stroke-width="0.86"/><path d="M24.61,22.23a.85.85,0,0,0-.84-.84" fill="none" stroke="#66d8ff" stroke-miterlimit="10" stroke-width="0.86"/><line x1="24.61" y1="25.56" x2="24.61" y2="22.23" fill="none" stroke="#66d8ff" stroke-miterlimit="10" stroke-width="0.86"/><rect x="26.91" y="19.09" width="5" height="5" rx="0.83" fill="none" stroke="#00beff" stroke-miterlimit="10" stroke-width="0.86"/><path d="M20.44,31.39a.83.83,0,0,1-.83-.83V27.23a.84.84,0,0,1,.83-.84h3.33a.85.85,0,0,1,.84.84" fill="none" stroke="#00beff" stroke-miterlimit="10" stroke-width="0.86"/><line x1="23.77" y1="31.39" x2="20.44" y2="31.39" fill="none" stroke="#66d8ff" stroke-miterlimit="10" stroke-width="0.86"/><path d="M24.61,30.56a.84.84,0,0,1-.84.83" fill="none" stroke="#66d8ff" stroke-miterlimit="10" stroke-width="0.86"/><line x1="24.61" y1="27.23" x2="24.61" y2="30.56" fill="none" stroke="#66d8ff" stroke-miterlimit="10" stroke-width="0.86"/><path d="M28.77,31.39a.84.84,0,0,0,.84-.83V27.23a.85.85,0,0,0-.84-.84H25.44a.84.84,0,0,0-.83.84" fill="none" stroke="#00beff" stroke-miterlimit="10" stroke-width="0.86"/><line x1="25.44" y1="31.39" x2="28.77" y2="31.39" fill="none" stroke="#66d8ff" stroke-miterlimit="10" stroke-width="0.86"/><path d="M24.61,30.56a.83.83,0,0,0,.83.83" fill="none" stroke="#66d8ff" stroke-miterlimit="10" stroke-width="0.86"/><line x1="24.61" y1="27.23" x2="24.61" y2="30.56" fill="none" stroke="#66d8ff" stroke-miterlimit="10" stroke-width="0.86"/></svg>