<svg id="bcc03f4d-80de-4bc7-b9b6-dd6b4fef1326" data-name="abe67c66-c6c3-4503-85d9-a9fd77b851e1" xmlns="http://www.w3.org/2000/svg" viewBox="0 0 51 51"><path d="M51,25.46A25.51,25.51,0,1,1,40.59,5,25.5,25.5,0,0,1,51,25.46Z" transform="translate(0 0)" fill="#262622"/><path d="M45.54,20A25.44,25.44,0,0,1,5,40.51,25.44,25.44,0,0,1,40.59,5,25.23,25.23,0,0,1,45.54,20Z" transform="translate(0 0)" fill="#262628"/><path d="M15.23,17.08a1.73,1.73,0,0,0-1.69,1.72v6.78a1.69,1.69,0,0,0,1.69,1.69H22a1.72,1.72,0,0,0,1.71-1.69" transform="translate(0 0)" fill="none" stroke="#00beff" stroke-miterlimit="10" stroke-width="1.75"/><line x1="22.02" y1="17.08" x2="15.23" y2="17.08" fill="none" stroke="#66d8ff" stroke-miterlimit="10" stroke-width="1.75"/><path d="M23.73,18.8A1.74,1.74,0,0,0,22,17.08" transform="translate(0 0)" fill="none" stroke="#66d8ff" stroke-miterlimit="10" stroke-width="1.75"/><line x1="23.73" y1="25.58" x2="23.73" y2="18.8" fill="none" stroke="#00beff" stroke-miterlimit="10" stroke-width="1.75"/><rect x="28.41" y="12.4" width="10.18" height="10.18" rx="1.69" fill="none" stroke="#00beff" stroke-miterlimit="10" stroke-width="1.75"/><path d="M15.23,37.45a1.69,1.69,0,0,1-1.69-1.69V29a1.71,1.71,0,0,1,1.69-1.71H22A1.73,1.73,0,0,1,23.73,29" transform="translate(0 0)" fill="none" stroke="#00beff" stroke-miterlimit="10" stroke-width="1.75"/><line x1="22.02" y1="37.45" x2="15.23" y2="37.45" fill="none" stroke="#66d8ff" stroke-miterlimit="10" stroke-width="1.75"/><path d="M23.73,35.76A1.71,1.71,0,0,1,22,37.45" transform="translate(0 0)" fill="none" stroke="#66d8ff" stroke-miterlimit="10" stroke-width="1.75"/><line x1="23.73" y1="28.98" x2="23.73" y2="35.76" fill="none" stroke="#66d8ff" stroke-miterlimit="10" stroke-width="1.75"/><path d="M32.2,37.45a1.71,1.71,0,0,0,1.71-1.69V29a1.73,1.73,0,0,0-1.71-1.71H25.42A1.71,1.71,0,0,0,23.73,29" transform="translate(0 0)" fill="none" stroke="#00beff" stroke-miterlimit="10" stroke-width="1.75"/><line x1="25.42" y1="37.45" x2="32.2" y2="37.45" fill="none" stroke="#66d8ff" stroke-miterlimit="10" stroke-width="1.75"/><path d="M23.73,35.76a1.68,1.68,0,0,0,1.69,1.69" transform="translate(0 0)" fill="none" stroke="#66d8ff" stroke-miterlimit="10" stroke-width="1.75"/><line x1="23.73" y1="28.98" x2="23.73" y2="35.76" fill="none" stroke="#66d8ff" stroke-miterlimit="10" stroke-width="1.75"/></svg>