<svg id="Warstwa_1" data-name="Warstwa 1" xmlns="http://www.w3.org/2000/svg" viewBox="0 0 69.16 26.25">
  <defs>
    <style>
      .cls-1, .cls-2 {
        fill: #ffb000;
      }

      .cls-2 {
        stroke: #fff;
        stroke-miterlimit: 10;
      }
    </style>
  </defs>
  <rect class="cls-1" x="0.21" width="3" height="22.5" rx="1.42"/>
  <rect class="cls-2" x="25.43" y="15.98" width="3.15" height="13" rx="1.54" transform="translate(-14.27 38.48) rotate(-90)"/>
  <rect class="cls-1" x="12.21" width="3" height="22.5" rx="1.42"/>
  <g>
    <path d="M37.66,30.23a8.53,8.53,0,0,0,4.07,1.08c2,0,3.06-.93,3.06-2.3s-.85-2-3-2.8c-2.78-1-4.56-2.48-4.56-4.89,0-2.76,2.31-4.84,6-4.84a9,9,0,0,1,4,.83l-.74,2.49a7.26,7.26,0,0,0-3.36-.8c-2,0-2.78,1-2.78,2,0,1.29,1,1.9,3.22,2.75,2.92,1.12,4.33,2.59,4.33,5,0,2.71-2,5.06-6.39,5.06A9.83,9.83,0,0,1,37,32.78Z" transform="translate(-18.79 -11)"/>
    <path d="M54,17.94v3.48h2.93v2.29H54v5.37c0,1.49.4,2.25,1.57,2.25a4.41,4.41,0,0,0,1.2-.14l.06,2.35a7,7,0,0,1-2.24.31,3.54,3.54,0,0,1-2.64-1,4.84,4.84,0,0,1-1-3.41V23.71H49.26V21.42H51V18.67Z" transform="translate(-18.79 -11)"/>
    <path d="M70.15,29.94c0,1.45,0,2.66.1,3.65H67.56l-.15-1.84h-.07a4.41,4.41,0,0,1-3.9,2.11c-2.21,0-4.23-1.33-4.23-5.3V21.42h3.08V28c0,2,.63,3.32,2.27,3.32a2.53,2.53,0,0,0,2.34-1.65,2.48,2.48,0,0,0,.17-.95V21.42h3.08Z" transform="translate(-18.79 -11)"/>
    <path d="M81.34,33.59V23.71H76.91v9.88H73.83V23.71H72.18V21.42h1.65v-.31a5.59,5.59,0,0,1,1.38-4,4.58,4.58,0,0,1,3.43-1.25,4.28,4.28,0,0,1,1.66.35l-.49,2.29a2.75,2.75,0,0,0-1.11-.25c-1.4,0-1.81,1.18-1.81,2.71v.48h4.45V20.9a5.68,5.68,0,0,1,1.48-4.16A4.63,4.63,0,0,1,86,15.57a5.93,5.93,0,0,1,2,.3l-.22,2.36A3.7,3.7,0,0,0,86.43,18c-1.52,0-2,1.28-2,2.78v.63h2.66v2.29H84.42v9.88Z" transform="translate(-18.79 -11)"/>
  </g>
  <path class="cls-1" d="M20,37.25H85a1.25,1.25,0,0,0,0-2.5H20a1.25,1.25,0,0,0,0,2.5Z" transform="translate(-18.79 -11)"/>
</svg>
