<svg id="Warstwa_1" data-name="Warstwa 1" xmlns="http://www.w3.org/2000/svg" viewBox="0 0 69.25 26.25">
  <defs>
    <style>
      .cls-1 {
        fill: #ffb000;
      }
    </style>
  </defs>
  <path class="cls-1" d="M1.71,11.44v.07a1.54,1.54,0,0,0,1.5,1.54v8A1.43,1.43,0,0,1,1.79,22.5H1.63A1.43,1.43,0,0,1,.21,21.08V1.42A1.43,1.43,0,0,1,1.63,0h.16A1.43,1.43,0,0,1,3.21,1.42V9.9A1.54,1.54,0,0,0,1.71,11.44Z" transform="translate(0.04)"/>
  <path class="cls-1" d="M2.71,11.5v-.05c0-.54.58-1,1.3-1h8.4c.72,0,1.3.44,1.3,1v.05c0,.54-.58,1-1.3,1H4C3.29,12.47,2.71,12,2.71,11.5Z" transform="translate(0.04)"/>
  <rect class="cls-1" x="12.25" width="3" height="22.5" rx="1.42"/>
  <g>
    <path d="M18.87,19.23a8.53,8.53,0,0,0,4.07,1.08c2,0,3.06-.93,3.06-2.3s-.85-2-3-2.8c-2.78-1-4.56-2.48-4.56-4.89,0-2.76,2.31-4.84,6-4.84a9,9,0,0,1,4,.83L27.7,8.8A7.26,7.26,0,0,0,24.34,8c-2,0-2.78,1-2.78,2,0,1.29,1,1.9,3.22,2.75,2.92,1.12,4.33,2.59,4.33,5,0,2.71-2,5.06-6.39,5.06a9.81,9.81,0,0,1-4.51-1Z" transform="translate(0.04)"/>
    <path d="M35.21,6.94v3.48h2.93v2.29H35.21v5.37c0,1.49.4,2.25,1.57,2.25a4.43,4.43,0,0,0,1.2-.14L38,22.54a7.05,7.05,0,0,1-2.24.31,3.54,3.54,0,0,1-2.64-1,4.87,4.87,0,0,1-1-3.41V12.71H30.47V10.42h1.74V7.67Z" transform="translate(0.04)"/>
    <path d="M51.36,18.94c0,1.45,0,2.66.1,3.65H48.77l-.15-1.84h-.07a4.42,4.42,0,0,1-3.9,2.11c-2.21,0-4.23-1.33-4.23-5.3V10.42H43.5V17c0,2,.63,3.32,2.27,3.32a2.52,2.52,0,0,0,2.34-1.65,2.39,2.39,0,0,0,.17-1v-7.3h3.08Z" transform="translate(0.04)"/>
    <path d="M62.55,22.59V12.71H58.12v9.88H55V12.71H53.39V10.42H55v-.31a5.58,5.58,0,0,1,1.38-4,4.58,4.58,0,0,1,3.43-1.25,4.12,4.12,0,0,1,1.66.35L61,7.5a2.85,2.85,0,0,0-1.11-.25c-1.4,0-1.81,1.18-1.81,2.71v.48h4.45V9.9A5.69,5.69,0,0,1,64,5.74a4.59,4.59,0,0,1,3.18-1.17,5.89,5.89,0,0,1,2,.3L69,7.23A3.65,3.65,0,0,0,67.64,7c-1.52,0-2,1.28-2,2.78v.63H68.3V12.7H65.63v9.88Z" transform="translate(0.04)"/>
  </g>
  <path class="cls-1" d="M1.24,26.25H67.93a1.25,1.25,0,1,0,0-2.5H1.24a1.25,1.25,0,1,0,0,2.5Z" transform="translate(0.04)"/>
</svg>
