<svg id="Warstwa_1" data-name="Warstwa 1" xmlns="http://www.w3.org/2000/svg" viewBox="0 0 1449.31 623.94">
  <defs>
    <style>
      .cls-1 {
        fill: #24292e;
      }
    </style>
  </defs>
  <g>
    <path class="cls-1" d="M122.74,161.39a17.3,17.3,0,0,1-15.3,9.26H81.81c-.39,0-.79,0-1.17,0a20.28,20.28,0,0,0-19.11,20.24v64.24a17.3,17.3,0,0,1-17.28,17.28H23.71a1.5,1.5,0,1,0,0,3H44.25a20.31,20.31,0,0,0,20.27-20.26V191a17.3,17.3,0,0,1,16.39-17.26l.89,0h25.64a20.28,20.28,0,0,0,18.63-12.28Zm-.26,314.89a1.09,1.09,0,0,0-.26,0l-.3,0-.25.07a1.47,1.47,0,0,0-1,1.4c0,.48,0,.95-.06,1.42a18.73,18.73,0,0,1-17.7,17.27l-1,0a1.5,1.5,0,0,0,0,3h.18c.32,0,.63,0,.94,0,.74,0,1.47-.11,2.19-.22a21.64,21.64,0,0,0,7.69-2.75,21.92,21.92,0,0,0,4.35-3.37,21.7,21.7,0,0,0,6.32-13.93c0-.47.05-.94.05-1.42A1.49,1.49,0,0,0,122.48,476.28Z" transform="translate(0 -29.53)"/>
    <path class="cls-1" d="M191.22,517h-63a1.5,1.5,0,0,0,0,3h63a1.5,1.5,0,1,0,0-3Zm-78.35,0H84.14a1.5,1.5,0,1,0,0,3h28.73a1.5,1.5,0,0,0,0-3Zm65.91,101.72-81.4.08a17.29,17.29,0,0,1-17.27-17.24l-.19-57v-5.71A21.89,21.89,0,0,0,58.07,517H27.3a1.5,1.5,0,1,0,0,3H58.07a18.87,18.87,0,0,1,18.81,18.88v5.72l.19,57a20.28,20.28,0,0,0,20.38,20.18l81.4-.08a17.28,17.28,0,0,1,17.27,17.23v13a1.5,1.5,0,0,0,1.5,1.5l-.05,0a1.5,1.5,0,0,0,1.5-1.5V639A20.3,20.3,0,0,0,178.78,618.72ZM104.64,415H95.88a1.5,1.5,0,0,0,0,3h8.76a1.5,1.5,0,0,0,0-3ZM81,415H64.73a1.5,1.5,0,0,0,0,3H81a1.5,1.5,0,1,0,0-3Zm125.33,40.83H183.24a1.5,1.5,0,1,0,0,3H206.3a1.5,1.5,0,1,0,0-3Zm-136,0H58.7a1.5,1.5,0,1,0,0,3H70.34a1.5,1.5,0,0,0,0-3Zm-7.93-20.41h-38a1.5,1.5,0,0,0,0,3h38a1.5,1.5,0,1,0,0-3Zm57.4.11H79.58a1.5,1.5,0,1,0,0,3h40.23a1.5,1.5,0,0,0,0-3Zm80.45-81.66h-9a1.5,1.5,0,0,0,0,3h9a1.5,1.5,0,0,0,0-3Zm-18.53,0H157.46a1.5,1.5,0,0,0,0,3h24.27a1.5,1.5,0,1,0,0-3Zm-51.22,0H92.65a1.5,1.5,0,1,0,0,3h37.86a1.5,1.5,0,0,0,0-3Zm-52,0H58.07a1.5,1.5,0,1,0,0,3H78.46a1.5,1.5,0,0,0,0-3Zm105.61-20.3h-17.2a1.5,1.5,0,0,0,0,3h17.2a1.5,1.5,0,0,0,0-3Zm-130.4,0H8.07a1.5,1.5,0,1,0,0,3H53.64a1.5,1.5,0,1,0,0-3Zm108.15,61.13H153a1.5,1.5,0,1,0,0,3h8.86a1.5,1.5,0,0,0,0-3Zm-31.3-20.3H103.71a1.5,1.5,0,1,0,0,3h26.8a1.5,1.5,0,1,0,0-3Zm-13.2-102h-11a1.5,1.5,0,0,0,0,3h11a1.5,1.5,0,0,0,0-3Zm-22.64,0H70.85a1.5,1.5,0,1,0,0,3H94.68a1.5,1.5,0,0,0,0-3ZM218.74,293H183.66a1.5,1.5,0,1,0,0,3h35.08a1.5,1.5,0,0,0,0-3Zm-97.67,0H90.3a1.5,1.5,0,0,0,0,3h30.77a1.5,1.5,0,0,0,0-3Zm-46.53,0H38.37a1.5,1.5,0,0,0,0,3H74.54a1.5,1.5,0,1,0,0-3ZM35.86,211.32H14.58a1.5,1.5,0,0,0,0,3H35.86a1.5,1.5,0,1,0,0-3Zm245.91,0H225.4a1.5,1.5,0,0,0,0,3h56.38a1.5,1.5,0,1,0,0-3Zm-71.48,0H167.44a1.5,1.5,0,0,0,0,3h42.85a1.5,1.5,0,1,0,0-3Zm-72.13,0H79.62a1.5,1.5,0,0,0,0,3h58.54a1.5,1.5,0,0,0,1.5-1.48v0A1.5,1.5,0,0,0,138.16,211.32Zm91.6-20.3H206.3a1.5,1.5,0,0,0,0,3h23.46a1.5,1.5,0,0,0,0-3Zm-38.13,0H146.3a1.5,1.5,0,0,0,0,3h45.33a1.5,1.5,0,0,0,0-3Zm-63.72,0H112.18a1.5,1.5,0,0,0,0,3h15.73a1.5,1.5,0,0,0,0-3Zm37.76,61.13H142.35a1.5,1.5,0,0,0,0,3h23.32a1.5,1.5,0,0,0,0-3Zm85-20.3H211.88a1.5,1.5,0,0,0,0,3h38.83a1.5,1.5,0,1,0,0-3Zm-55.55,0H178.32a1.5,1.5,0,0,0,0,3h16.83a1.5,1.5,0,0,0,0-3Zm-93.48,0h-22a1.5,1.5,0,1,0,0,3h22a1.5,1.5,0,0,0,0-3Zm-56,0H7.07a1.5,1.5,0,1,0,0,3H45.64a1.5,1.5,0,1,0,0-3Zm42.71-61.16H35.69a1.5,1.5,0,0,0,0,3H88.38a.65.65,0,0,0,.2,0,1.48,1.48,0,0,0,1.3-1.48A1.5,1.5,0,0,0,88.38,170.69Z" transform="translate(0 -29.53)"/>
    <path class="cls-1" d="M1442.29,557.59H1311a20.29,20.29,0,0,0-20.28,20.28v23.58a17.3,17.3,0,0,1-17.28,17.28H1243a1.5,1.5,0,0,0,0,3h30.42a20.29,20.29,0,0,0,20.28-20.28V577.87A17.3,17.3,0,0,1,1311,560.59h131.3a1.5,1.5,0,0,0,0-3Zm-167.55,0h-13.29a1.5,1.5,0,0,0,0,3h13.29a1.5,1.5,0,0,0,0-3ZM433.59,639H367.73a1.5,1.5,0,0,0,0,3h65.86a1.5,1.5,0,0,0,0-3ZM97.84,639h-72a1.5,1.5,0,0,0,0,3h72a1.5,1.5,0,1,0,0-3Zm85.86,0H167.85a1.5,1.5,0,0,0,0,3h15.86a1.5,1.5,0,1,0,0-3Zm88.47,0H211.64a1.5,1.5,0,0,0,0,3h60.53a1.5,1.5,0,1,0,0-3Zm80.75,0H287a1.5,1.5,0,0,0,0,3h65.94a1.5,1.5,0,1,0,0-3Zm-.78-20.31H334.33a1.5,1.5,0,1,0,0,3h17.81a1.5,1.5,0,0,0,0-3Zm-287.62,0H44.69a1.5,1.5,0,0,0,0,3H64.52a1.5,1.5,0,0,0,0-3Zm257.72,0H305.58a1.5,1.5,0,1,0,0,3h16.67a1.5,1.5,0,1,0,0-3Zm724,20.31H978.36a1.5,1.5,0,0,0,0,3h67.87a1.5,1.5,0,1,0,0-3Zm31.91,0h-18.87a1.5,1.5,0,0,0,0,3h18.87a1.5,1.5,0,0,0,0-3Zm107.42,0h-36.65a1.5,1.5,0,0,0,0,3h36.65a1.5,1.5,0,0,0,0-3Zm200.75,0h-65.94a1.5,1.5,0,0,0,0,3h65.94a1.5,1.5,0,0,0,0-3Zm-168.47-20.31h-50.52a1.5,1.5,0,0,0,0,3h50.52a1.5,1.5,0,0,0,0-3Zm-100.78,0h-63a1.5,1.5,0,0,0,0,3h63a1.5,1.5,0,0,0,0-3Zm33.14,0h-21.79a1.5,1.5,0,0,0,0,3h21.79a1.5,1.5,0,0,0,0-3Zm176.18,0h-26a1.5,1.5,0,0,0,0,3h26a1.5,1.5,0,0,0,0-3Zm29.25,0H1342.2a1.5,1.5,0,0,0,0,3h13.44a1.5,1.5,0,0,0,0-3Zm85.78-20.3h-19.19a1.5,1.5,0,0,0,0,3h19.19a1.5,1.5,0,0,0,0-3Zm-34.06,0h-35.58a1.5,1.5,0,0,0,0,3h35.58a1.5,1.5,0,0,0,0-3Zm-198.79,0h-16.5a1.5,1.5,0,0,0,0,3h16.52a1.5,1.5,0,0,0,0-3Zm150.73-102H1345a1.5,1.5,0,0,0,0,3h14.33a1.5,1.5,0,0,0,0-3Zm-34.62,0h-33.55a1.5,1.5,0,0,0,0,3h33.55a1.5,1.5,0,0,0,0-3Zm119.25-20.3h-22.86a1.5,1.5,0,0,0,0,3h22.83a1.5,1.5,0,1,0,0-3Zm-144.44,0h-14.12a1.5,1.5,0,0,0,0,3h14.12a1.5,1.5,0,0,0,0-3Zm23.2,61.13h-29.62a1.5,1.5,0,0,0,0,3h29.64a1.5,1.5,0,0,0,0-3Zm-45.39,0h-56.59a1.5,1.5,0,0,0,0,3h56.59a1.5,1.5,0,0,0,0-3ZM1392,517h-57.61a1.5,1.5,0,0,0,0,3H1392a1.5,1.5,0,0,0,0-3Zm-71.25,0h-46a1.5,1.5,0,0,0,0,3h46a1.5,1.5,0,0,0,0-3ZM1389,415h-12.64a1.5,1.5,0,0,0,0,3H1389a1.5,1.5,0,0,0,0-3Zm-37,0h-41.84a1.5,1.5,0,0,0,0,3h41.84a1.5,1.5,0,0,0,0-3Zm41.56,40.83h-27.12a1.5,1.5,0,0,0,0,3h27.12a1.5,1.5,0,0,0,0-3Zm-4.52-20.3h-51.34a1.5,1.5,0,0,0,0,3H1389a1.5,1.5,0,0,0,0-3Zm53.34-81.66h-23.87a1.5,1.5,0,0,0,0,3h23.87a1.5,1.5,0,0,0,0-3Zm-88.22,0H1333a1.5,1.5,0,0,0,0,3h21.12a1.5,1.5,0,0,0,0-3Zm-33.42,0h-9.19a1.5,1.5,0,0,0,0,3h9.19a1.5,1.5,0,0,0,0-3Zm68-20.3H1358.3a1.5,1.5,0,0,0,0,3h30.35a1.5,1.5,0,0,0,0-3Zm52.48,61.13h-22.82a1.5,1.5,0,0,0,0,3h22.82a1.5,1.5,0,0,0,0-3Zm-66.38-20.3h-20.68a1.5,1.5,0,0,0,0,3h20.71a1.5,1.5,0,0,0,0-3Zm-35.18,0h-42.4a1.5,1.5,0,0,0,0,3h42.4a1.5,1.5,0,0,0,0-3Zm108.24-102h-29.5a1.5,1.5,0,0,0,0,3h29.5a1.5,1.5,0,0,0,0-3Zm-97.31,0h-28.87a1.5,1.5,0,0,0,0,3h28.87a1.5,1.5,0,0,0,0-3Zm-45.23,0h-15.2a1.5,1.5,0,0,0,0,3h15.25a1.5,1.5,0,0,0,0-3Zm137.27,61.09h-24.22a1.5,1.5,0,0,0,0,3h24.22a1.5,1.5,0,0,0,0-3Zm-179.83-20.26h-29a1.5,1.5,0,0,0,0,3h29a1.5,1.5,0,0,0,0-3Zm126.94-19.92h-49.43a1.5,1.5,0,0,0,0,3h49.43a1.5,1.5,0,0,0,0-3Zm-67.17,0h-26.22a1.5,1.5,0,0,0,0,3h26.22a1.5,1.5,0,0,0,0-3Zm-42.33,0h-27.08a1.5,1.5,0,0,0,0,3h27.11a1.5,1.5,0,0,0,0-3ZM1445,231.85h-20.13a1.5,1.5,0,0,0,0,3H1445a1.5,1.5,0,0,0,0-3Zm-55.36,0h-37.49a1.5,1.5,0,0,0,0,3h37.49a1.5,1.5,0,0,0,0-3Zm-52.33,0h-14.25a1.5,1.5,0,0,0,0,3h14.25a1.5,1.5,0,0,0,0-3Zm-40.49,0h-24.17a1.5,1.5,0,0,0,0,3h24.17a1.5,1.5,0,0,0,0-3Zm-37.34,0h-12.42a1.5,1.5,0,0,0,0,3h12.42a1.5,1.5,0,0,0,0-3ZM318.57,29.59a.17.17,0,0,0,0,.07v-.13A.13.13,0,0,0,318.57,29.59Zm50.28,568.84H329a1.5,1.5,0,0,0,0,3h39.86a1.5,1.5,0,0,0,0-3Zm-202-40.83H144.78a1.5,1.5,0,1,0,0,3h22.11a1.5,1.5,0,0,0,0-3Zm-35.82,0H111.46a1.5,1.5,0,0,0,0,3h19.61a1.5,1.5,0,1,0,0-3Zm-96.45,0H1.5a1.5,1.5,0,0,0,0,3H34.62a1.5,1.5,0,1,0,0-3ZM141.9,598.43H97.84a1.5,1.5,0,0,0,0,3H141.9a1.5,1.5,0,0,0,0-3Zm43-20.34H171.4a1.5,1.5,0,1,0,0,3h13.54a1.5,1.5,0,0,0,0-3Zm-26.09,0H126.22a1.5,1.5,0,0,0,0,3h32.63a1.5,1.5,0,1,0,0-3Zm-5-81.62h-6.68a1.5,1.5,0,0,0,0,3h6.68a1.5,1.5,0,0,0,0-3Zm-20.8,0H98.34a1.5,1.5,0,0,0,0,3h34.73a1.5,1.5,0,0,0,0-3Zm-92.1,0H8.07a1.5,1.5,0,1,0,0,3H41a1.5,1.5,0,1,0,0-3Zm109.65-20.3H110.44a1.5,1.5,0,0,0,0,3h40.18a1.5,1.5,0,0,0,0-3ZM64.73,537.3H51.26a1.5,1.5,0,1,0,0,3H64.73a1.5,1.5,0,1,0,0-3Z" transform="translate(0 -29.53)"/>
    <path class="cls-1" d="M190.48,573.12a6.49,6.49,0,0,0-6.32,5,6,6,0,0,0-.19,1.54,6.41,6.41,0,0,0,.17,1.46,6.51,6.51,0,1,0,6.34-8Zm0,10a3.51,3.51,0,0,1,0-7v0h.05a3.54,3.54,0,0,1-.05,7.07ZM62.75,394.71a6.53,6.53,0,1,0,0,3,5.71,5.71,0,0,0,.19-1.5A6.16,6.16,0,0,0,62.75,394.71Zm-6.33,5a3.51,3.51,0,0,1,0-7h0a3.52,3.52,0,0,1,0,7Zm86.75-193.43a6.49,6.49,0,0,0-6.33,5,6.34,6.34,0,0,0,0,3,6.51,6.51,0,1,0,6.33-8Zm3.51,6.53a3.51,3.51,0,1,1-7,0v0a3.51,3.51,0,0,1,3.51-3.49v0h0a3.51,3.51,0,0,1,3.49,3.51Zm-41.14,80.53-.39-.39L87.62,275.45,85.14,273A1.5,1.5,0,0,0,83,275.09l.36.36L101,293l2.47,2.47a1.49,1.49,0,0,0,2.12-2.08Zm1254.07,0a1.16,1.16,0,0,0-.2-.25l-20.22-20.22a1.5,1.5,0,0,0-2.12,2.12l.44.44,17.86,17.91,1.87,1.87a1.5,1.5,0,0,0,1.06.44,1.53,1.53,0,0,0,1.11-.44A1.49,1.49,0,0,0,1359.61,293.36Zm-45.42,203.81a1.5,1.5,0,0,0-2.12-.08l-2.39,2.38L1292.09,517l-.28.28a1.52,1.52,0,0,0,2.16,2.15l2.43-2.43,17.53-17.53.26-.26A1.49,1.49,0,0,0,1314.19,497.17Zm-1171,81.33a1.51,1.51,0,0,0-1-.41,1.47,1.47,0,0,0-1.09.48l-2.52,2.52-17.38,17.34-.36.36a1.51,1.51,0,0,0,2.16,2.12l2.48-2.48,17.74-17.74.08-.07A1.5,1.5,0,0,0,143.19,578.5Z" transform="translate(0 -29.53)"/>
    <path class="cls-1" d="M1442.55,455.84h-20.48a17.3,17.3,0,0,1-17.28-17.28V356.31a1.19,1.19,0,0,0,0-.33,1.5,1.5,0,0,0-3,.33v82.25a20.29,20.29,0,0,0,20.28,20.28h20.47a1.5,1.5,0,1,0,0-3ZM1244.17,618.73a6.53,6.53,0,1,0,0,3,5.71,5.71,0,0,0,.19-1.5A6.16,6.16,0,0,0,1244.17,618.73Zm-6.33,5a3.51,3.51,0,0,1,0-7h0a3.52,3.52,0,0,1,0,7ZM1377.61,415a6.51,6.51,0,1,0,0,3,6.34,6.34,0,0,0,0-3Zm-6.33,5a3.51,3.51,0,1,1,0-7h0a3.52,3.52,0,0,1,0,7ZM122.74,476.35l-.26-.07a1.09,1.09,0,0,0-.26,0l-.3,0-.25.07a1.5,1.5,0,0,0-1,1.4c0,.48,0,.95,0,1.42a18.64,18.64,0,0,1-17.75,17.27l-.78,0a1.5,1.5,0,0,0-.06,3h.06c.32,0,.63,0,.94,0a17.66,17.66,0,0,0,2.19-.22,21.35,21.35,0,0,0,7.76-2.75,21.62,21.62,0,0,0,10.64-17.3c0-.45,0-.92,0-1.38v0A1.48,1.48,0,0,0,122.74,476.35ZM198.35,293a1.5,1.5,0,0,0-1.5,1.5,14.78,14.78,0,0,1-.07,1.5A18.85,18.85,0,0,1,178,313.28H161.13a20.28,20.28,0,0,0-20.27,20.22l-.22,44.1v.3a17,17,0,0,1-17.19,16.81h-62a1.5,1.5,0,1,0,0,3h62a20.17,20.17,0,0,0,20.19-20.1l.22-44.09a17.28,17.28,0,0,1,17.28-17.24H178A21.84,21.84,0,0,0,199.79,296q.06-.74.06-1.5A1.5,1.5,0,0,0,198.35,293Z" transform="translate(0 -29.53)"/>
    <path class="cls-1" d="M190.92,211.32A21.75,21.75,0,0,0,169.25,191a1.5,1.5,0,0,0,0,3,18.74,18.74,0,0,1,18.66,17.3c0,.47.06.94.06,1.42a1.5,1.5,0,0,0,3,0C191,212.26,191,211.79,190.92,211.32ZM1384.47,252h-55.64a17.29,17.29,0,0,1-17.28-17.27l0-12.51h-3v12.5A20.29,20.29,0,0,0,1328.86,255h55.64a17.29,17.29,0,0,1,17.28,17.27v91.11a.34.34,0,0,0,0,.1,1.48,1.48,0,0,0,3-.1V272.27A20.3,20.3,0,0,0,1384.47,252Z" transform="translate(0 -29.53)"/>
  </g>
  <path class="cls-1" d="M318.58,29.53v.13a.17.17,0,0,1,0-.07A.13.13,0,0,1,318.58,29.53Z" transform="translate(0 -29.53)"/>
</svg>
